<?xml version="1.0" standalone="no"?><!DOCTYPE svg PUBLIC "-//W3C//DTD SVG 1.1//EN" "http://www.w3.org/Graphics/SVG/1.1/DTD/svg11.dtd"><svg t="1574392737615" class="icon" viewBox="0 0 1024 1024" version="1.1" xmlns="http://www.w3.org/2000/svg" p-id="1205" xmlns:xlink="http://www.w3.org/1999/xlink" width="16" height="16"><defs><style type="text/css"></style></defs><path d="M948.365 75.635v872.73H75.635V75.635h872.73m0-13.635H75.635A13.68 13.68 0 0 0 62 75.635v872.73A13.68 13.68 0 0 0 75.635 962h872.73a13.68 13.68 0 0 0 13.635-13.635V75.635A13.68 13.68 0 0 0 948.365 62z" p-id="1206"></path><path d="M289.07 363.185h66.75000029l-2.35500029-60.39s-7.03500029-15.75 0-15.75h72.78000029l0.135 76.14H604.7l0.135-76.14h72.78000029c7.03500029 0 0 15.75 0 15.75l-2.35500029 60.39h66.70500029c0-32.38499971 0.945-64.50000029 2.27999971-96.58500029h-457.49999971c1.395 32.05500029 2.32499971 64.215 2.32499971 96.58500029zM426.69500029 546.99499971l88.84499942 65.655 88.84500029-65.655 0.225-129.25499942H426.48499971l0.21000058 129.25499942z" p-id="1207"></path><path d="M905.77999971 101.22499971H114.875a13.68 13.68 0 0 0-13.635 13.635v790.92a13.68 13.68 0 0 0 13.635 13.635h790.90499971a13.68 13.68 0 0 0 13.635-13.635V114.875a13.68 13.68 0 0 0-13.635-13.65000029z m-556.49999971 69.63000029a27.27 27.27 0 0 1 27.27-27.27h272.72999971a27.27 27.27 0 0 1 27.27 27.27v13.635H349.28zM795.05 865.45999971a2391.57 2391.57 0 0 1-52.36499971-447.71999942h-69.55500058l-6.795 173.99999971-93.29999942 63.37500029L738.69499971 777.5v68.175l-223.155-151.49999971-223.155 151.49999971V777.5L458 655.11500029l-93.30000029-63.37500029-6.795-173.99999971H288.35A2391.57 2391.57 0 0 1 235.99999971 865.45999971H163.99999971C191.30000029 740.17999971 205.64 624.5 205.64 500.22500029A2409.82499971 2409.82499971 0 0 0 188.27 212.00000029h654.54000029v0.135a2409.81000029 2409.81000029 0 0 0-17.35500058 288c0 124.22999971 14.33999971 240.00000029 41.715 365.23499942z" p-id="1208"></path></svg>