<?xml version="1.0" standalone="no"?><!DOCTYPE svg PUBLIC "-//W3C//DTD SVG 1.1//EN" "http://www.w3.org/Graphics/SVG/1.1/DTD/svg11.dtd"><svg t="1574239878010" class="icon" viewBox="0 0 1024 1024" version="1.1" xmlns="http://www.w3.org/2000/svg" p-id="1202" xmlns:xlink="http://www.w3.org/1999/xlink" width="16" height="16"><defs><style type="text/css"></style></defs><path d="M67.96190469 133.21481469H209.77777812v751.33968281H67.96190469z" p-id="1203"></path><path d="M67.69100563 751.27195812h256.10158687v133.35026438H67.69100563zM90.51428563 245.84126938l112.59259312-110.49312094 399.17037 406.8571425-112.62645469 110.49312187z" p-id="1204"></path><path d="M812.96931219 138.05714281L387.79259281 520.87195812l109.71428531 121.80317438 315.46243407-283.93650844z" p-id="1205"></path><path d="M962.67513219 751.77989375L963.21693125 134.02751281l-156.61375688-0.13544906-0.57566156 617.88783h156.64761938zM869.079365 150.51851844h80.42328094v55.02645469H869.079365V150.51851844z m0 69.14709h80.42328094v52.92698437H869.079365V219.66560844z m0 67.01375625h80.42328094v52.92698437H869.079365V286.67936469z m0 67.01375719h80.42328094v50.08253906H869.079365V353.69312188z m0 65.62539656h80.42328094v47.61058219H869.079365v-47.61058219z m0 68.40211687h80.42328094v50.79365063H869.079365v-50.79365063z m0 67.04761875h80.42328094v51.50476219H869.079365v-51.50476219z m0 66.30264563h80.42328094v47.84761875H869.079365v-47.84761875z m0 67.01375625h80.42328094v50.08254H869.079365v-50.08254z" p-id="1206"></path><path d="M805.58730125 751.13650813v133.45185187h157.18941844v-133.45185188h-157.18941844z m144.35555625 116.79153374h-81.47301656v-50.52275062h81.47301656v50.52275062z m0-63.79682531h-81.47301656V753.60846594h81.47301656v50.52275062zM207.67830688 751.13650813h116.04656062v133.55343937H207.67830688z" p-id="1207"></path><path d="M689.98095219 751.13650813h123.0222225v133.55343937h-123.0222225z" p-id="1208"></path></svg>