<?xml version="1.0" standalone="no"?><!DOCTYPE svg PUBLIC "-//W3C//DTD SVG 1.1//EN" "http://www.w3.org/Graphics/SVG/1.1/DTD/svg11.dtd"><svg t="1574239948413" class="icon" viewBox="0 0 1024 1024" version="1.1" xmlns="http://www.w3.org/2000/svg" p-id="1208" xmlns:xlink="http://www.w3.org/1999/xlink" width="16" height="16"><defs><style type="text/css"></style></defs><path d="M293.54666667 499.76888889h436.90666666v-72.81777778H293.54666667zM293.54666667 645.40444444h291.27111111v-72.81777778h-291.27111111zM293.54666667 791.03999999h291.27111111v-72.81777777h-291.27111111z" p-id="1209"></path><path d="M876.08888889 135.67999999h-145.63555556V62.86222222H293.54666667v72.81777777H147.91111111c-21.84533333 0-36.40888889 14.56355555-36.40888889 36.4088889v800.99555555c0 21.84533333 14.56355555 36.40888889 36.40888889 36.40888889h728.17777778c21.84533333 0 36.40888889-14.56355555 36.40888889-36.40888889V172.08888889c0-21.84533333-14.56355555-36.40888889-36.40888889-36.4088889zM366.36444445 135.67999999h291.2711111v72.81777778h-291.2711111V135.67999999z m473.31555555 800.99555557H184.32V208.49777777h109.22666667v72.81777779h436.90666666V208.49777777h109.22666667v728.17777779z" p-id="1210"></path></svg>