<?xml version="1.0" standalone="no"?><!DOCTYPE svg PUBLIC "-//W3C//DTD SVG 1.1//EN" "http://www.w3.org/Graphics/SVG/1.1/DTD/svg11.dtd"><svg t="1574239283090" class="icon" viewBox="0 0 1024 1024" version="1.1" xmlns="http://www.w3.org/2000/svg" p-id="1165" xmlns:xlink="http://www.w3.org/1999/xlink" width="16" height="16"><defs><style type="text/css"></style></defs><path d="M845.521576 968.06748667L188.118904 968.06748667c-20.747832 0-35.737647-16.82158-35.737647-37.56211401L152.381256 551.26266866c0-20.74235799 14.989816-37.56211401 35.737647-37.562114s35.739472 16.82158 35.739472 37.562114l0 345.32769801 585.92737801 0L809.78575301 543.79512767c0-20.747832 14.989816-37.56211401 35.73764699-37.562114s35.737647 16.81428199 35.737647 37.562114l0 386.71024499C881.259224 951.24590667 866.26940801 968.06748667 845.521576 968.06748667L845.521576 968.06748667z" p-id="1166"></path><path d="M980.966312 518.82365666c-9.618587 0-19.2317-3.393507-26.566055-10.17504899L510.28500201 98.00318767 70.836732 504.32827067c-14.67053399 13.566732-38.45610201 13.566732-53.126636 0.005473-14.67053399-13.563083-14.67053399-35.549727 0-49.110986L483.718947 24.33305966c7.04791399-6.513345 16.60082-10.175049 26.56605499-10.17504899 9.95976199 0 19.518141 3.661704 26.55875701 10.17504899L1007.525069 459.54127067c14.67053399 13.563083 14.665061 35.549727 0 49.11281001C1000.19071399 515.43014866 990.5776 518.82365666 980.966312 518.82365666L980.966312 518.82365666z" p-id="1167"></path></svg>