<?xml version="1.0" standalone="no"?><!DOCTYPE svg PUBLIC "-//W3C//DTD SVG 1.1//EN" "http://www.w3.org/Graphics/SVG/1.1/DTD/svg11.dtd"><svg t="1574398308390" class="icon" viewBox="0 0 1133 1024" version="1.1" xmlns="http://www.w3.org/2000/svg" p-id="20604" xmlns:xlink="http://www.w3.org/1999/xlink" width="17.703125" height="16"><defs><style type="text/css"></style></defs><path d="M1101.165714 589.458286H959.414857v-24.137143c0-13.531429-0.768-26.953143-2.194286-40.155429h143.908572c18.029714 0 32.694857 14.372571 32.694857 32.109715 0 17.773714-14.628571 32.182857-32.694857 32.182857z m-233.984-270.628572c-14.262857-16.493714-29.915429-31.817143-46.811428-45.714285l104.777143-103.021715a33.389714 33.389714 0 0 1 46.665142 0 32.036571 32.036571 0 0 1 0 45.897143l-104.594285 102.838857z m26.88 634.88h76.288c18.066286 0 32.694857 14.409143 32.694857 32.182857 0 17.737143-14.628571 32.146286-32.694857 32.146286H163.620571a32.438857 32.438857 0 0 1-32.694857-32.182857c0-17.737143 14.628571-32.109714 32.694857-32.109714h76.324572V568.027429c0-177.554286 146.395429-321.462857 327.021714-321.462858 180.589714 0 327.021714 143.908571 327.021714 321.462858v385.718857z m-65.462857-364.251428c0-142.043429-117.101714-257.170286-261.595428-257.170286-144.457143 0-261.632 115.126857-261.632 257.170286v364.251428h523.264v-364.251428z m-255.780571-136.923429a33.097143 33.097143 0 0 1 46.262857 0c12.8 12.544 12.8 32.914286 0 45.458286l-71.094857 69.851428h117.467428c18.066286 0 32.694857 14.409143 32.694857 32.182858a31.524571 31.524571 0 0 1-2.633142 12.617142c3.620571 11.446857 1.243429 24.393143-8.045715 33.499429l-128.182857 126.025143a34.377143 34.377143 0 0 1-48.091428 0 33.024 33.024 0 0 1 0-47.250286l94.354285-92.781714h-114.505143a32.292571 32.292571 0 0 1-15.177142-4.132572 31.744 31.744 0 0 1-26.331429-54.272l123.282286-121.197714z m-38.180572-268.653714V32.146286c0-17.773714 14.628571-32.146286 32.694857-32.146286s32.694857 14.372571 32.694858 32.182857v151.734857a405.101714 405.101714 0 0 0-33.024-1.645714c-10.934857 0-21.650286 0.731429-32.365715 1.609143zM272.237714 313.014857l-106.057143-104.228571a31.744 31.744 0 0 1 0-45.458286 33.060571 33.060571 0 0 1 46.226286 0l106.861714 105.033143c-16.969143 13.531429-32.548571 28.598857-47.030857 44.653714z m-97.645714 252.342857v24.100572H32.841143a32.438857 32.438857 0 0 1-32.694857-32.182857c0-17.737143 14.628571-32.109714 32.694857-32.109715H176.786286c-1.389714 13.202286-2.194286 26.587429-2.194286 40.155429z" p-id="20605"></path></svg>