<?xml version="1.0" standalone="no"?><!DOCTYPE svg PUBLIC "-//W3C//DTD SVG 1.1//EN" "http://www.w3.org/Graphics/SVG/1.1/DTD/svg11.dtd"><svg t="1574215713828" class="icon" viewBox="0 0 1024 1024" version="1.1" xmlns="http://www.w3.org/2000/svg" p-id="1278" xmlns:xlink="http://www.w3.org/1999/xlink" width="16" height="16"><defs><style type="text/css"></style></defs><path d="M1008.4864 15.5136v992.9728H15.5136V15.5136h992.9728m0-15.5136H15.5136A15.5648 15.5648 0 0 0 0 15.5136v992.9728A15.5648 15.5648 0 0 0 15.5136 1024h992.9728a15.5648 15.5648 0 0 0 15.5136-15.5136V15.5136A15.5648 15.5648 0 0 0 1008.4864 0z" p-id="1279"></path><path d="M258.3552 342.6816h75.946667l-2.679467-68.7104s-8.004267-17.92 0-17.92h82.807467l0.1536 86.6304H617.472l0.1536-86.6304h82.807467c8.004267 0 0 17.92 0 17.92l-2.679467 68.7104h75.895467c0-36.846933 1.0752-73.386667 2.594133-109.892267h-520.533333c1.5872 36.471467 2.645333 73.0624 2.645333 109.892267zM414.941867 551.816533l101.085866 74.7008 101.085867-74.7008 0.256-147.063466H414.702933l0.238934 147.063466z" p-id="1280"></path><path d="M960.034133 44.629333H60.16a15.5648 15.5648 0 0 0-15.5136 15.5136v899.8912a15.5648 15.5648 0 0 0 15.5136 15.5136h899.874133a15.5648 15.5648 0 0 0 15.5136-15.5136V60.16a15.5648 15.5648 0 0 0-15.5136-15.530667z m-633.173333 79.223467a31.0272 31.0272 0 0 1 31.0272-31.0272h310.306133a31.0272 31.0272 0 0 1 31.0272 31.0272v15.5136H326.8608zM834.048 914.158933a2721.0752 2721.0752 0 0 1-59.579733-509.405866h-79.138134l-7.7312 197.973333-106.154666 72.106667L769.928533 814.08v77.568l-253.9008-172.373333-253.9008 172.373333V814.08L450.56 674.833067l-106.154667-72.106667-7.7312-197.973333H257.536A2721.0752 2721.0752 0 0 1 197.973333 914.158933H116.053333C147.114667 771.618133 163.4304 640 163.4304 498.602667A2741.845333 2741.845333 0 0 0 143.6672 170.666667h744.721067v0.1536a2741.828267 2741.828267 0 0 0-19.746134 327.68c0 141.346133 16.315733 273.066667 47.4624 415.556266z" p-id="1281"></path></svg>