<?xml version="1.0" standalone="no"?><!DOCTYPE svg PUBLIC "-//W3C//DTD SVG 1.1//EN" "http://www.w3.org/Graphics/SVG/1.1/DTD/svg11.dtd"><svg t="1574388296096" class="icon" viewBox="0 0 1024 1024" version="1.1" xmlns="http://www.w3.org/2000/svg" p-id="1202" xmlns:xlink="http://www.w3.org/1999/xlink" width="16" height="16"><defs><style type="text/css"></style></defs><path d="M630.34117653 56.88888853h9.10222294v609.8488896h-9.10222294z" fill="#FFFFFF" p-id="1203"></path><path d="M635.55674987 717.10037333H144.18238613V539.71626667c0-270.82752 220.00071147-488.54357333 491.37436374-488.54357334v665.92768z" fill="#FFFFFF" p-id="1204"></path><path d="M733.1325728 444.26126187l199.18392853-114.76081707a26.70592 26.70592 0 0 0 11.08650667-33.79655147C889.0263328 169.93848853 774.28371947 76.27662187 635.547648 51.1817952V666.30997333a377.4691552 377.4691552 0 0 0 163.84-55.94225813 26.83335147 26.83335147 0 0 0 8.90197333-36.1722304L733.1325728 444.26126187z" fill="#00c8ff" p-id="1205"></path><path d="M416.79394133 464.59562667a16.11093333 16.11093333 0 0 1-15.98350186-14.1539552 84.28657813 84.28657813 0 0 1-0.60074667-10.05795627c0-45.67495147 37.22808853-82.83022187 83.01226667-82.83022187a82.87573333 82.87573333 0 0 1 63.91580373 29.98272c5.67978667 6.84487147 4.7331552 16.98474667-2.12081707 22.65543147a16.14734187 16.14734187 0 0 1-22.69184-2.12081813 50.69937813 50.69937813 0 0 0-39.1122496-18.35918187c-27.98933333 0-50.7721952 22.73735147-50.7721952 50.6720704 0 2.0662048 0.12743147 4.15061333 0.36408854 6.18951147a16.09272853 16.09272853 0 0 1-16.0199104 18.0224" fill="#29C07B" p-id="1206"></path><path d="M395.13975467 740.01066667H331.35138133v233.99082666a31.85777813 31.85777813 0 0 0 31.89418667 31.83047147 31.85777813 31.85777813 0 0 0 31.89418667-31.83047147V740.01066667z" fill="#29C07B" p-id="1207"></path><path d="M578.3856928 740.01066667H514.59731947v233.99082666a31.85777813 31.85777813 0 0 0 31.89418666 31.83047147 31.85777813 31.85777813 0 0 0 31.89418667-31.83047147V740.01066667z" fill="#29C07B" p-id="1208"></path><path d="M597.93726613 668.23054187C420.64418133 668.23054187 271.76823467 546.8797152 230.09826133 382.8758752a712.18517333 712.18517333 0 0 0-85.9158752 256.7736896v187.77884373a27.4614048 27.4614048 0 0 1-27.48871146 27.43409814c-21.41752853 0-40.1225952 16.12913813-41.50613334 37.4556448a40.16810667 40.16810667 0 0 0 40.1225952 42.79864853H144.191488v0.43690667h304.32369813c103.31022187 0 187.05066667-83.56750187 187.05066667-186.66837334v-82.52984853a383.5676448 383.5676448 0 0 1-37.6194848 1.85685333" fill="#29C07B" p-id="1209"></path><path d="M326.76386133 172.67825813c-67.51118187 0-122.2428448-54.61333333-122.2428448-121.9970848v-0.93752853c0.28216853-37.97447147-49.73454187-53.15697813-69.03125333-20.42538667a121.51466667 121.51466667 0 0 0-16.45681707 70.99733334c4.5238048 61.26705813 55.45984 110.23701333 116.9635552 112.65820373a122.0608 122.0608 0 0 0 95.9101152-40.41386667c-1.71121813 0.0637152-3.41333333 0.11832853-5.1427552 0.1183296" fill="#001d26" p-id="1210"></path><path d="M635.55674987 51.1817952a413.66869333 413.66869333 0 0 0-74.81116374-6.71744c-136.91562667 0-258.3938848 65.90008853-334.3519296 167.66293333a379.58997333 379.58997333 0 0 0-7.93713706 77.38709334c0 32.22186667 4.05048853 63.5062048 11.63264 93.37969813C318.07123947 226.9821152 462.13210987 107.07854187 635.55674987 51.1817952" fill="#F78E20" p-id="1211"></path><path d="M230.08915947 382.89408a378.7798752 378.7798752 0 0 1-11.63264-93.3888c0-26.51477333 2.73976853-52.39239147 7.93713706-77.37799147A413.40472853 413.40472853 0 0 0 144.191488 468.4003552v171.25831147a712.18517333 712.18517333 0 0 1 85.90677333-256.77368854" fill="#d4237a" p-id="1212"></path></svg>