<?xml version="1.0" standalone="no"?><!DOCTYPE svg PUBLIC "-//W3C//DTD SVG 1.1//EN" "http://www.w3.org/Graphics/SVG/1.1/DTD/svg11.dtd"><svg t="1574392616301" class="icon" viewBox="0 0 1024 1024" version="1.1" xmlns="http://www.w3.org/2000/svg" p-id="1622" xmlns:xlink="http://www.w3.org/1999/xlink" width="16" height="16"><defs><style type="text/css"></style></defs><path d="M948.90666667 75.09333333H75.09333333a36.40888889 36.40888889 0 0 0-36.40888888 36.40888889v655.36a36.40888889 36.40888889 0 0 0 36.40888888 36.40888889h327.68v-72.81777778H111.50222222V147.91111111h800.99555556v582.54222222h-291.27111111c-10.04885333 0-19.15107555 4.07779555-25.77749334 10.66780445l-182.00803555 182.04444444 51.48216889 51.48216889L636.29994667 803.27111111H948.90666667a36.40888889 36.40888889 0 0 0 36.40888888-36.40888889V111.50222222a36.40888889 36.40888889 0 0 0-36.40888888-36.40888889" p-id="1623"></path><path d="M566.61333333 439.18222222a54.61333333 54.61333333 0 1 0-109.19025778-0.03640889A54.61333333 54.61333333 0 0 0 566.61333333 439.18222222M202.52444445 439.18222222a54.61333333 54.61333333 0 1 0 109.19025777 0.03640889A54.61333333 54.61333333 0 0 0 202.52444445 439.18222222M821.47555555 439.18222222a54.61333333 54.61333333 0 1 0-109.19025777-0.03640889A54.61333333 54.61333333 0 0 0 821.47555555 439.18222222" p-id="1624"></path></svg>