<?xml version="1.0" standalone="no"?><!DOCTYPE svg PUBLIC "-//W3C//DTD SVG 1.1//EN" "http://www.w3.org/Graphics/SVG/1.1/DTD/svg11.dtd"><svg t="1574239109344" class="icon" viewBox="0 0 1024 1024" version="1.1" xmlns="http://www.w3.org/2000/svg" p-id="1446" xmlns:xlink="http://www.w3.org/1999/xlink" width="16" height="16"><defs><style type="text/css"></style></defs><path d="M361.81333333 361.81333333c20.48-27.30666667 75.09333333-75.09333333 191.14666667-136.53333333-61.44 20.48-81.92 13.65333333-102.4-27.30666667-40.96 47.78666667-75.09333333 122.88-88.74666667 163.84zM348.16 368.64c6.82666667-27.30666667 34.13333333-88.74666667 61.44-143.36-27.30666667 34.13333333-68.26666667 54.61333333-109.22666667 54.61333333 27.30666667 20.48 40.96 68.26666667 47.78666667 88.74666667zM621.22666667 191.14666667zM587.09333333 218.45333333c-150.18666667 81.92-204.8 136.53333333-218.45333333 163.84 40.96-20.48 136.53333333-54.61333333 238.93333333-54.61333333-47.78666667-20.48-81.92-54.61333333-20.48-109.22666667zM634.88 327.68zM334.50666667 395.94666667c-20.48 0-75.09333333 0-150.18666667 54.61333333 13.65333333 34.13333333 13.65333333 61.44 6.82666667 88.74666667 68.26666667-102.4 122.88-136.53333333 143.36-143.36z" p-id="1447"></path><path d="M341.33333333 402.77333333c-27.30666667 13.65333333-102.4 61.44-170.66666666 197.97333334 54.61333333-34.13333333 102.4-68.26666667 122.88 6.82666666 0-81.92 34.13333333-170.66666667 47.78666666-204.8z" p-id="1448"></path><path d="M348.16 402.77333333c-6.82666667 27.30666667-40.96 116.05333333-40.96 204.8 20.48-75.09333333 102.4-129.70666667 197.97333333-68.26666666-34.13333333-34.13333333-129.70666667-116.05333333-157.01333333-136.53333334zM293.54666667 279.89333333zM354.98666667 395.94666667c20.48 20.48 102.4 88.74666667 143.36 122.88-20.48-61.44 0-157.01333333 116.05333333-184.32-116.05333333 0-225.28 47.78666667-259.41333333 61.44zM505.17333333 539.30666667c6.82666667 0 6.82666667 0 0 0 6.82666667 0 6.82666667 0 0 0zM341.33333333 382.29333333c-6.82666667-20.48-20.48-75.09333333-54.61333333-95.57333333-6.82666667 54.61333333-47.78666667 102.4-75.09333333 129.70666667 68.26666667-40.96 109.22666667-34.13333333 129.70666666-34.13333334zM300.37333333 634.88c0 6.82666667 0 6.82666667 0 0 0 6.82666667 0 6.82666667 0 0zM286.72 948.90666667s-13.65333333 13.65333333-34.13333333 20.48c-20.48 0-34.13333333-13.65333333-40.96-20.48s34.13333333-20.48 34.13333333-20.48 47.78666667 6.82666667 40.96 20.48z" p-id="1449"></path><path d="M743.09623573 761.55183787a143.36 81.92 41.591 1 0-214.43856746-190.3272416 143.36 81.92 41.591 1 0 214.43856746 190.3272416Z" p-id="1450"></path><path d="M689.49333333 607.57333333c40.96 40.96 61.44 81.92 68.26666667 116.05333334 0-109.22666667 6.82666667-177.49333333 40.96-238.93333334-266.24-6.82666667-361.81333333 27.30666667-361.81333333 334.50666667-136.53333333-191.14666667-95.57333333-300.37333333-327.68 40.96 20.48 13.65333333 68.26666667 40.96 102.4 88.74666667l34.13333333-13.65333334 40.96 13.65333334c27.30666667-47.78666667 68.26666667-95.57333333 150.18666667-129.70666667 61.44-27.30666667 143.36-40.96 259.41333333-40.96-27.30666667-13.65333333-75.09333333-20.48-109.22666667-54.61333333-40.96-61.44-68.26666667-102.4-40.96-136.53333334 27.30666667-27.30666667 75.09333333-20.48 143.36 20.48z" p-id="1451"></path><path d="M1010.34666667 293.54666667c0 6.82666667-6.82666667 20.48-13.65333334 27.30666666-6.82666667 0-6.82666667 6.82666667-13.65333333 6.82666667-95.57333333 61.44-157.01333333 109.22666667-184.32 157.01333333-136.53333333-95.57333333-259.41333333-136.53333333-61.44-259.41333333 27.30666667-20.48 68.26666667-40.96 116.05333333-61.44 20.48 40.96 68.26666667 61.44 129.70666667 102.4l6.82666667 6.82666667c13.65333333 0 20.48 13.65333333 20.48 20.48zM996.69333333 266.24l-6.82666666-6.82666667c0 6.82666667 0 6.82666667 6.82666666 6.82666667z" p-id="1452"></path><path d="M996.69333333 320.85333333c-6.82666667 0-6.82666667 6.82666667-13.65333333 6.82666667 6.82666667 0 13.65333333-6.82666667 13.65333333-6.82666667zM846.50666667 68.26666667c6.82666667 6.82666667 6.82666667 13.65333333 0 27.30666666-6.82666667 27.30666667-6.82666667 47.78666667 0 68.26666667-34.13333333 6.82666667-75.09333333 20.48-116.05333334 34.13333333-81.92 13.65333333-157.01333333 13.65333333-109.22666666-122.88v-6.82666666c61.44 0 129.70666667-6.82666667 184.32-13.65333334 20.48 0 27.30666667 0 40.96 13.65333334zM621.22666667 68.26666667zM580.26666667 68.26666667h40.96l-6.82666667 6.82666666c-54.61333333 40.96-116.05333333 102.4-170.66666667 116.05333334h-13.65333333c-20.48 0-40.96-6.82666667-54.61333333-20.48 34.13333333-20.48 61.44-40.96 88.74666666-54.61333334 0 0 6.82666667 0 6.82666667-6.82666666 6.82666667-13.65333333 27.30666667-20.48 40.96-27.30666667 27.30666667-6.82666667 47.78666667-13.65333333 68.26666667-13.65333333z" p-id="1453"></path><path d="M320.85333333 197.97333333c6.82666667 0 6.82666667-6.82666667 13.65333334-6.82666666-6.82666667 6.82666667-13.65333333 6.82666667-13.65333334 6.82666666zM184.32 327.68c0-6.82666667 6.82666667-13.65333333 13.65333333-20.48-6.82666667 6.82666667-6.82666667 13.65333333-13.65333333 20.48zM163.84 354.98666667c6.82666667 20.48 27.30666667 40.96 13.65333333 81.92-6.82666667 40.96-40.96 95.57333333-129.70666666 184.32l-20.48 20.48V566.61333333v-13.65333333c0-6.82666667 0-20.48 6.82666666-27.30666667 6.82666667-20.48 13.65333333-34.13333333 27.30666667-47.78666666 40.96-40.96 75.09333333-81.92 102.4-122.88z" p-id="1454"></path><path d="M163.84 354.98666667c6.82666667-6.82666667 13.65333333-20.48 20.48-27.30666667 6.82666667-6.82666667 6.82666667-13.65333333 13.65333333-20.48 6.82666667-13.65333333 20.48-27.30666667 34.13333334-40.96 27.30666667-27.30666667 54.61333333-47.78666667 88.74666666-68.26666667 6.82666667 0 6.82666667-6.82666667 13.65333334-6.82666666L375.46666667 170.66666667s0 6.82666667-6.82666667 6.82666666c-61.44 116.05333333-163.84 163.84-204.8 177.49333334 6.82666667 0 0 0 0 0zM163.84 354.98666667zM34.13333333 552.96v0z" p-id="1455"></path><path d="M27.30666667 641.70666667c204.8-102.4 129.70666667 0 81.92 218.45333333-13.65333333-6.82666667-34.13333333-13.65333333-54.61333334-13.65333333h-6.82666666c-20.48 0-34.13333333-13.65333333-40.96-27.30666667 0-6.82666667-6.82666667-13.65333333 0-20.48 13.65333333-54.61333333 20.48-109.22666667 20.48-157.01333333zM54.61333333 846.50666667s6.82666667 0 0 0c6.82666667 0 0 0 0 0z" p-id="1456"></path></svg>