<?xml version="1.0" standalone="no"?><!DOCTYPE svg PUBLIC "-//W3C//DTD SVG 1.1//EN" "http://www.w3.org/Graphics/SVG/1.1/DTD/svg11.dtd"><svg t="1574392451593" class="icon" viewBox="0 0 1024 1024" version="1.1" xmlns="http://www.w3.org/2000/svg" p-id="1208" xmlns:xlink="http://www.w3.org/1999/xlink" width="16" height="16"><defs><style type="text/css"></style></defs><path d="M900.36148148 861.52533333c0 25.12698785-12.19455052 47.30242845-30.79706548 61.51645867A77.01208178 77.01208178 0 0 1 822.68918518 939.19762963c-42.83627141 0-77.6722963-34.83602489-77.67229629-77.6722963 0-3.33990875 0.58254222-6.56330903 0.9709037-9.82554548A77.71113245 77.71113245 0 0 1 822.68918518 783.85303703c39.03032889 0 71.10898725 29.04943882 76.546048 66.60399408 0.50486992 3.65059792 1.1262483 7.2623597 1.1262483 11.06830222M201.31081482 589.6722963c-42.83627141 0-77.6722963-34.83602489-77.6722963-77.6722963s34.83602489-77.6722963 77.6722963-77.6722963a77.20626252 77.20626252 0 0 1 74.2158791 56.04056178c2.0194797 6.91283437 3.45641718 14.05868563 3.45641719 21.63173452 0 7.57304889-1.43693748 14.71890015-3.45641719 21.63173452A77.24509867 77.24509867 0 0 1 201.31081482 589.6722963M745.01688889 162.47466667c0-42.83627141 34.83602489-77.6722963 77.67229629-77.6722963 17.67044741 0 33.78744889 6.17494755 46.87523082 16.15583763 18.60251497 14.21403022 30.79706548 36.38947082 30.79706548 61.51645867 0 3.80594252-0.62137837 7.4177043-1.1262483 11.06830222A77.55578785 77.55578785 0 0 1 822.68918518 240.14696297a77.71113245 77.71113245 0 0 1-76.70139259-67.84675082C745.59943111 169.0379757 745.01688889 165.81457541 745.01688889 162.47466667m77.67229629 543.70607408a154.0629997 154.0629997 0 0 0-103.53717096 40.31192177l-364.904448-210.6861037A150.29589333 150.29589333 0 0 0 356.65540741 512c0-8.15559111-1.16508445-16.00049303-2.40784119-23.80655882l364.904448-210.6861037A154.0629997 154.0629997 0 0 0 822.68918518 317.81925925a155.34459259 155.34459259 0 0 0 151.84933927-187.73394014 154.37368889 154.37368889 0 0 0-35.30205867-69.36136059A154.33485275 154.33485275 0 0 0 822.68918518 7.13007408a155.34459259 155.34459259 0 0 0-155.34459259 155.34459259c0 17.63161125 3.57292563 34.25348267 8.97115023 50.05979496l-353.29243971 204.00628622C294.55640652 380.34545778 250.904576 356.65540741 201.31081482 356.65540741a155.34459259 155.34459259 0 0 0 0 310.68918518c49.59376118 0 93.2455917-23.69005037 121.71248829-59.88534044l353.29243971 204.00628622A154.02416355 154.02416355 0 0 0 667.34459259 861.52533333a155.34459259 155.34459259 0 0 0 155.34459259 155.34459259 154.33485275 154.33485275 0 0 0 116.5472806-53.59388444A154.37368889 154.37368889 0 0 0 978.03377778 861.52533333a155.34459259 155.34459259 0 0 0-155.3445926-155.34459258" p-id="1209"></path></svg>